<svg width="25" height="25" viewBox="0 0 25 25" fill="none" xmlns="http://www.w3.org/2000/svg"><path d="M12.477 13.378a2.9 2.9 0 0 1-2.125-.875 2.9 2.9 0 0 1-.875-2.125q0-1.25.875-2.125a2.9 2.9 0 0 1 2.125-.875q1.25 0 2.125.875t.875 2.125-.875 2.125a2.9 2.9 0 0 1-2.125.875m-6 10v-7.725a7.7 7.7 0 0 1-1.475-2.4 7.9 7.9 0 0 1-.525-2.875q0-3.35 2.325-5.675t5.675-2.325 5.675 2.325 2.325 5.675a7.9 7.9 0 0 1-.525 2.875q-.525 1.35-1.475 2.4v7.725l-6-2zm6-7q2.5 0 4.25-1.75t1.75-4.25-1.75-4.25-4.25-1.75-4.25 1.75-1.75 4.25 1.75 4.25 4.25 1.75m-4 4.025 4-1.025 4 1.025v-3.1a8.5 8.5 0 0 1-1.888.788 7.7 7.7 0 0 1-2.112.287 7.8 7.8 0 0 1-2.113-.288 8.4 8.4 0 0 1-1.887-.786z" fill="#032D71"/></svg>