<svg width="25" height="25" viewBox="0 0 25 25" fill="none" xmlns="http://www.w3.org/2000/svg"><path d="M6.615 9.378h-1m5 0h-1m-3-3h-1m5 0h-1m9 9h-1m1-4h-1m-3.5-3v14h4c1.887 0 2.829 0 3.415-.586s.585-1.528.585-3.414v-6c0-1.886 0-2.828-.585-3.414-.587-.586-1.529-.586-3.415-.586zm0 0c0-2.828 0-4.243-.879-5.12-.878-.88-2.293-.88-5.12-.88-2.829 0-4.244 0-5.122.88-.879.877-.879 2.292-.879 5.12v3m4.111 2.255c.185-.17.277-.255.39-.255.111 0 .203.085.388.255l.713.657c.086.08.13.12.182.138.054.02.112.018.23.013l.962-.038c.248-.01.372-.014.457.057s.102.194.135.44l.132.986c.016.114.023.17.051.22.028.048.073.083.164.154l.776.61c.192.152.288.227.307.335s-.046.212-.175.42l-.526.847a.6.6 0 0 0-.1.2c-.01.054.003.111.027.223l.207.978c.053.24.078.36.023.456-.056.096-.173.134-.405.21l-.927.301a.6.6 0 0 0-.209.09c-.043.037-.07.09-.123.192l-.452.871c-.115.223-.173.334-.278.372s-.22-.01-.452-.106l-.888-.368c-.109-.045-.163-.068-.22-.068s-.11.023-.22.068l-.888.368c-.232.096-.347.144-.452.106s-.163-.15-.278-.372l-.452-.87c-.054-.104-.08-.156-.123-.192s-.099-.055-.209-.09l-.926-.302c-.233-.076-.35-.114-.405-.21s-.03-.215.022-.456l.208-.978c.024-.112.036-.168.026-.222a.6.6 0 0 0-.1-.2l-.526-.848c-.128-.208-.193-.312-.174-.42s.115-.183.307-.334l.776-.61c.09-.072.135-.107.163-.156s.035-.105.05-.22l.133-.985c.033-.245.05-.369.135-.44.085-.07.21-.067.457-.057l.963.038c.117.005.175.007.23-.013.052-.02.095-.059.181-.138z" stroke="#032D71" stroke-width="1.5" stroke-linecap="round" stroke-linejoin="round"/></svg>